<svg xmlns="http://www.w3.org/2000/svg" viewBox="0 -960 960 960" fill="#0b50da">
  <path d="M685-265q-15-15-15-35.5t15-35.5l56-56q15-15 35.5-15t35.5 15l150 150q15 15 15 35.5T962-171l-56 56q-15 15-35.5 15T835-115L685-265Zm-455 10L115-140q-15 15-35.5 15T44-140l-30-30q-15-15-15-35.5T14-241l115-115q15-15 35.5-15T200-356l30 30q15 15 15 35.5T230-255ZM513-88 288-313q-15-15-15-35.5t15-35.5l456-455q15-15 35.5-15t35.5 15l225 225q15 15 15 35.5t-15 35.5L584-88q-15 15-35.5 15T513-88Zm286-455-150-150-321 321 150 150 321-321ZM154-824q-22 0-38-16t-16-38q0-22 16-38t38-16q22 0 38 16t16 38q0 22-16 38t-38 16Zm256 122q-22 0-38-16t-16-38q0-22 16-38t38-16q22 0 38 16t16 38q0 22-16 38t-38 16Zm-256 312q-22 0-38-16t-16-38q0-22 16-38t38-16q22 0 38 16t16 38q0 22-16 38t-38 16ZM60-562q-22 0-38-16t-16-38q0-22 16-38t38-16q22 0 38 16t16 38q0 22-16 38t-38 16Zm256-312q-22 0-38-16t-16-38q0-22 16-38t38-16q22 0 38 16t16 38q0 22-16 38t-38 16Z"/>
</svg>
